<?xml version="1.0" encoding="UTF-8"?>
<!-- Generator: visioncortex VTracer 0.6.2 -->
<svg version="1.1" xmlns="http://www.w3.org/2000/svg" width="1280" height="1280">
<path d="M0 0 C1.72573242 -0.0299707 1.72573242 -0.0299707 3.48632812 -0.06054688 C10.61854803 -0.05645964 15.05978133 0.80961201 21.1875 4.4375 C22.57200438 4.81513663 23.96932117 5.14848647 25.375 5.4375 C29.38168561 6.48843393 31.1442489 7.72324902 34.1875 10.4375 C35.095 10.97375 36.0025 11.51 36.9375 12.0625 C39.1875 13.4375 39.1875 13.4375 40.1875 15.4375 C40.826875 15.72625 41.46625 16.015 42.125 16.3125 C44.66266362 17.69668016 44.95097746 18.88717226 46.1875 21.4375 C46.826875 21.911875 47.46625 22.38625 48.125 22.875 C50.63244908 24.77458263 51.6825509 26.68933209 53.1875 29.4375 C53.6825 30.22125 54.1775 31.005 54.6875 31.8125 C56.4648493 34.92286127 57.80615591 38.13428588 59.1875 41.4375 C59.53949463 42.01943115 59.89148926 42.6013623 60.25415039 43.20092773 C62.3052838 48.11602927 61.59988277 53.9592409 61.61303711 59.23413086 C61.62483678 61.46908415 61.67394635 63.70118397 61.72460938 65.93554688 C61.82473433 74.8503993 60.55979 81.54525255 56.1875 89.4375 C55.84114502 90.30898682 55.49479004 91.18047363 55.13793945 92.07836914 C53.96342834 94.99367889 52.3138401 97.02078743 50.3125 99.4375 C49.63445312 100.2625 48.95640625 101.0875 48.2578125 101.9375 C47.57460938 102.7625 46.89140625 103.5875 46.1875 104.4375 C45.53394531 105.29988281 44.88039063 106.16226563 44.20703125 107.05078125 C42.19844481 109.42456523 40.35034366 110.94401528 37.75 112.625 C36.63818359 113.35783203 36.63818359 113.35783203 35.50390625 114.10546875 C32.01673205 116.11074093 29.24211026 117.4375 25.1875 117.4375 C24.6925 118.9225 24.6925 118.9225 24.1875 120.4375 C12.99427675 126.12110559 -6.72058341 124.66985383 -18.8125 122.4375 C-21.04169947 121.6205614 -22.78602343 120.69720165 -24.8125 119.4375 C-24.8125 118.7775 -24.8125 118.1175 -24.8125 117.4375 C-25.8025 117.39625 -26.7925 117.355 -27.8125 117.3125 C-34.81692768 116.31996976 -40.20249285 110.41145508 -44.8125 105.4375 C-45.35261719 104.85613281 -45.89273438 104.27476562 -46.44921875 103.67578125 C-50.8125 98.8243007 -50.8125 98.8243007 -50.8125 95.4375 C-51.75416016 95.07398438 -51.75416016 95.07398438 -52.71484375 94.703125 C-55.3494979 93.11350127 -55.5846917 92.11014955 -56.375 89.1875 C-57.14054857 86.42962315 -57.91821735 84.25079866 -59.33813477 81.74316406 C-61.04081413 77.92559846 -61.19984389 75.2294707 -61.2109375 71.0625 C-61.21380768 70.37494629 -61.21667786 69.68739258 -61.21963501 68.97900391 C-61.22166541 67.53352021 -61.21620751 66.08800838 -61.20361328 64.64257812 C-61.18754296 62.44337917 -61.20349482 60.24601752 -61.22265625 58.046875 C-61.22067363 56.63541265 -61.21682957 55.22395144 -61.2109375 53.8125 C-61.20755371 52.54148437 -61.20416992 51.27046875 -61.20068359 49.9609375 C-60.78028218 46.14506758 -59.69710853 43.75093669 -57.8125 40.4375 C-56.79241789 37.80853838 -55.82717918 35.16591822 -54.875 32.51171875 C-53.8125 30.4375 -53.8125 30.4375 -50.8125 29.4375 C-50.503125 28.509375 -50.19375 27.58125 -49.875 26.625 C-48.71474319 23.14422957 -47.52727345 21.82321 -44.8125 19.4375 C-44.338125 18.963125 -43.86375 18.48875 -43.375 18 C-42.859375 17.484375 -42.34375 16.96875 -41.8125 16.4375 C-41.049375 15.6125 -40.28625 14.7875 -39.5 13.9375 C-36.72760504 11.35852794 -34.22033731 10.03265789 -30.8125 8.4375 C-30.214375 7.921875 -29.61625 7.40625 -29 6.875 C-26.15835413 5.00763271 -23.4545046 4.61773033 -20.12890625 4.0625 C-17.7058618 3.54009479 -17.7058618 3.54009479 -15.53613281 1.92553711 C-10.68557127 -0.72453215 -5.41310584 -0.03302505 0 0 Z " fill="#000100" transform="translate(639.8125,897.5625)"/>
<path d="M0 0 C0.68755371 -0.00287018 1.37510742 -0.00574036 2.08349609 -0.00869751 C3.52897979 -0.01072791 4.97449162 -0.00527001 6.41992188 0.00732422 C8.61912083 0.02339454 10.81648248 0.00744268 13.015625 -0.01171875 C14.42708735 -0.00973613 15.83854856 -0.00589207 17.25 0 C19.15652344 0.00507568 19.15652344 0.00507568 21.1015625 0.01025391 C24.91743242 0.43065532 27.31156331 1.51382897 30.625 3.3984375 C33.25396162 4.41851961 35.89658178 5.38375832 38.55078125 6.3359375 C40.625 7.3984375 40.625 7.3984375 41.625 10.3984375 C42.51574219 10.68074219 43.40648437 10.96304688 44.32421875 11.25390625 C48.26549818 12.6205274 50.60141266 14.78148103 53.4375 17.7109375 C53.92669922 18.18466797 54.41589844 18.65839844 54.91992188 19.14648438 C57.9426345 22.20264333 58.85038541 24.26952854 59.625 28.3984375 C60.94170836 29.09736619 62.27599993 29.76407086 63.625 30.3984375 C64.56640625 32.38671875 64.56640625 32.38671875 65.1875 34.7109375 C65.92007114 37.39096485 66.54852691 39.28875254 68.1484375 41.58349609 C70.85983708 46.75254986 70.10383767 52.71389627 70.07104492 58.43530273 C70.0625631 60.69413257 70.0912706 62.9504058 70.12304688 65.20898438 C70.15971789 72.87174107 69.86539307 78.77382342 65.625 85.3984375 C65.07160671 86.8657334 64.54033541 88.3423262 64.0625 89.8359375 C63.588125 91.0115625 63.11375 92.1871875 62.625 93.3984375 C61.14 93.8934375 61.14 93.8934375 59.625 94.3984375 C59.34269531 95.28917969 59.06039062 96.17992187 58.76953125 97.09765625 C57.4029101 101.03893568 55.24195647 103.37485016 52.3125 106.2109375 C51.83876953 106.70013672 51.36503906 107.18933594 50.87695312 107.69335938 C47.82079417 110.716072 45.75390896 111.62382291 41.625 112.3984375 C40.92403156 113.7140611 40.25724392 115.04844126 39.625 116.3984375 C37.671875 117.33984375 37.671875 117.33984375 35.375 117.9609375 C32.61712315 118.72648607 30.43829866 119.50415485 27.93066406 120.92407227 C24.11309846 122.62675163 21.4169707 122.78578139 17.25 122.796875 C16.56244629 122.79974518 15.87489258 122.80261536 15.16650391 122.80557251 C13.72102021 122.80760291 12.27550838 122.80214501 10.83007812 122.78955078 C8.63087917 122.77348046 6.43351752 122.78943232 4.234375 122.80859375 C2.82291265 122.80661113 1.41145144 122.80276707 0 122.796875 C-1.90652344 122.79179932 -1.90652344 122.79179932 -3.8515625 122.78662109 C-7.66743242 122.36621968 -10.06156331 121.28304603 -13.375 119.3984375 C-16.00396162 118.37835539 -18.64658178 117.41311668 -21.30078125 116.4609375 C-23.375 115.3984375 -23.375 115.3984375 -24.375 112.3984375 C-25.2825 112.1096875 -26.19 111.8209375 -27.125 111.5234375 C-31.03671563 110.16938209 -32.60570223 108.44466504 -35.375 105.3984375 C-35.90609375 104.90859375 -36.4371875 104.41875 -36.984375 103.9140625 C-40.38433724 100.773145 -41.60019424 99.04727205 -42.375 94.3984375 C-43.01050781 94.1096875 -43.64601563 93.8209375 -44.30078125 93.5234375 C-46.375 92.3984375 -46.375 92.3984375 -47.31640625 90.4453125 C-47.62384766 89.30835938 -47.62384766 89.30835938 -47.9375 88.1484375 C-48.70304857 85.39056065 -49.48071735 83.21173616 -50.90063477 80.70410156 C-52.60331413 76.88653596 -52.76234389 74.1904082 -52.7734375 70.0234375 C-52.77630768 69.33588379 -52.77917786 68.64833008 -52.78213501 67.93994141 C-52.78416541 66.49445771 -52.77870751 65.04894588 -52.76611328 63.60351562 C-52.75004296 61.40431667 -52.76599482 59.20695502 -52.78515625 57.0078125 C-52.78317363 55.59635015 -52.77932957 54.18488894 -52.7734375 52.7734375 C-52.77005371 51.50242187 -52.76666992 50.23140625 -52.76318359 48.921875 C-52.34278218 45.10600508 -51.25960853 42.71187419 -49.375 39.3984375 C-48.35491789 36.76947588 -47.38967918 34.12685572 -46.4375 31.47265625 C-45.375 29.3984375 -45.375 29.3984375 -42.375 28.3984375 C-41.95154297 27.06232422 -41.95154297 27.06232422 -41.51953125 25.69921875 C-40.1529101 21.75793932 -37.99195647 19.42202484 -35.0625 16.5859375 C-34.58876953 16.09673828 -34.11503906 15.60753906 -33.62695312 15.10351562 C-30.57079417 12.080803 -28.50390896 11.17305209 -24.375 10.3984375 C-23.67403156 9.0828139 -23.00724392 7.74843374 -22.375 6.3984375 C-20.421875 5.45703125 -20.421875 5.45703125 -18.125 4.8359375 C-15.36712315 4.07038893 -13.18829866 3.29272015 -10.68066406 1.87280273 C-6.86309846 0.17012337 -4.1669707 0.01109361 0 0 Z " fill="#000100" transform="translate(631.375,578.6015625)"/>
<path d="M0 0 C0.77775284 -0.00004028 1.55550568 -0.00008057 2.35682678 -0.00012207 C3.99667468 0.00522324 5.63652277 0.022764 7.27612305 0.05175781 C9.77407929 0.09356461 12.26933133 0.09282718 14.76757812 0.0859375 C16.36590399 0.09643323 17.96421606 0.10937341 19.5625 0.125 C20.30330307 0.12520142 21.04410614 0.12540283 21.80735779 0.12561035 C26.53741793 0.23249596 29.78448394 1.18629943 33.84765625 3.59375 C33.84765625 4.25375 33.84765625 4.91375 33.84765625 5.59375 C34.71777344 5.72330078 34.71777344 5.72330078 35.60546875 5.85546875 C41.33792997 6.88655501 44.58374534 8.42674616 48.84765625 12.59375 C49.67265625 13.3775 50.49765625 14.16125 51.34765625 14.96875 C53.80458897 17.54852936 56.14772591 20.1827435 58.43359375 22.9140625 C59.59783409 24.29699992 60.81044732 25.63906602 62.03515625 26.96875 C64.10011571 29.95938094 65.03966522 32.74488672 66.0390625 36.21484375 C66.80733089 38.71741794 66.80733089 38.71741794 68.37109375 41.28588867 C70.80515599 46.73878372 70.32863421 52.41137568 70.29370117 58.27880859 C70.28520455 60.4563702 70.31396618 62.63129152 70.34570312 64.80859375 C70.38308948 72.35116971 69.99238223 78.06385152 65.84765625 84.59375 C65.29449277 86.01912145 64.76323561 87.45397119 64.28515625 88.90625 C62.95193216 92.32625962 62.32763088 93.22972224 59.84765625 95.59375 C59.35265625 96.46 58.85765625 97.32625 58.34765625 98.21875 C56.84765625 100.59375 56.84765625 100.59375 53.84765625 101.59375 C53.70328125 102.233125 53.55890625 102.8725 53.41015625 103.53125 C53.22453125 104.211875 53.03890625 104.8925 52.84765625 105.59375 C51.53232215 106.29526152 50.19648033 106.95900925 48.84765625 107.59375 C48.39390625 108.233125 47.94015625 108.8725 47.47265625 109.53125 C45.33235637 112.24778446 42.95410462 113.13562117 39.84765625 114.59375 C39.24953125 115.109375 38.65140625 115.625 38.03515625 116.15625 C35.19351038 118.02361729 32.48966085 118.41351967 29.1640625 118.96875 C26.73138555 119.50095893 26.73138555 119.50095893 24.47265625 121.109375 C16.83029385 125.43094898 4.28780079 124.1762771 -4.15234375 122.59375 C-6.5802278 121.72881631 -8.82529317 120.72665617 -11.125 119.56640625 C-13.37342611 118.41051476 -13.37342611 118.41051476 -16.90234375 117.59375 C-20.47603449 116.49415285 -22.35237753 115.02529961 -25.15234375 112.59375 C-26.05984375 112.0575 -26.96734375 111.52125 -27.90234375 110.96875 C-30.15234375 109.59375 -30.15234375 109.59375 -31.15234375 107.59375 C-31.79171875 107.305 -32.43109375 107.01625 -33.08984375 106.71875 C-35.62750737 105.33456984 -35.91582121 104.14407774 -37.15234375 101.59375 C-37.79171875 101.119375 -38.43109375 100.645 -39.08984375 100.15625 C-41.59729283 98.25666737 -42.64739465 96.34191791 -44.15234375 93.59375 C-44.66796875 92.789375 -45.18359375 91.985 -45.71484375 91.15625 C-47.2723336 88.37985506 -48.14816304 85.60629214 -49.15234375 82.59375 C-49.81234375 81.93375 -50.47234375 81.27375 -51.15234375 80.59375 C-53.14173821 75.12072601 -52.41625081 68.76458031 -52.44750977 63.00463867 C-52.45902464 61.52765316 -52.47946911 60.0507091 -52.5090332 58.57397461 C-52.55194914 56.42793822 -52.56790957 54.28313228 -52.578125 52.13671875 C-52.59270752 50.85821045 -52.60729004 49.57970215 -52.62231445 48.26245117 C-52.04131043 43.72699794 -50.55681431 41.45203284 -48.15234375 37.59375 C-47.65734375 35.7065625 -47.65734375 35.7065625 -47.15234375 33.78125 C-46.15234375 30.59375 -46.15234375 30.59375 -44.21484375 29.46875 C-43.53421875 29.18 -42.85359375 28.89125 -42.15234375 28.59375 C-41.1404648 26.93426852 -40.13968915 25.26794438 -39.15234375 23.59375 C-38.16234375 23.26375 -37.17234375 22.93375 -36.15234375 22.59375 C-35.65734375 21.748125 -35.16234375 20.9025 -34.65234375 20.03125 C-34.15734375 19.226875 -33.66234375 18.4225 -33.15234375 17.59375 C-32.16234375 17.59375 -31.17234375 17.59375 -30.15234375 17.59375 C-29.81203125 16.4490625 -29.81203125 16.4490625 -29.46484375 15.28125 C-27.8607069 11.99658882 -26.32205113 11.29456859 -23.15234375 9.59375 C-22.69859375 9.0575 -22.24484375 8.52125 -21.77734375 7.96875 C-20.15234375 6.59375 -20.15234375 6.59375 -16.77734375 6.21875 C-13.00989272 5.95793779 -13.00989272 5.95793779 -10.93530273 3.09179688 C-7.35806909 -0.11920888 -4.57859298 -0.10105611 0 0 Z " fill="#000100" transform="translate(631.15234375,259.40625)"/>
</svg>
